<svg width="1271" height="495" viewBox="0 0 1271 495" fill="none" xmlns="http://www.w3.org/2000/svg">
<path fill-rule="evenodd" clip-rule="evenodd" d="M160.395 195.501C202.407 201.778 199.739 266.406 229.384 296.829C258.166 326.365 315.285 326.093 326.363 365.818C338.452 409.173 321.645 465.533 282.738 488.16C245.283 509.943 202.197 473.739 160.395 462.34C135.387 455.52 112.674 449.127 90.4816 435.732C56.671 415.324 6.06573 404.913 0.47905 365.818C-5.13987 326.497 39.9805 301.547 67.1686 272.591C95.8623 242.031 118.936 189.306 160.395 195.501Z" fill="#FF5E5E"/>
<path fill-rule="evenodd" clip-rule="evenodd" d="M1111.81 0.00163886C1148.89 -0.212848 1182.79 20.6497 1207.13 48.6277C1229.85 74.7464 1230.02 110.047 1237.01 143.95C1247.24 193.558 1293.54 254.087 1256.65 288.797C1219.47 323.786 1162.69 266.029 1111.81 261.763C1069.5 258.216 1023.64 291.443 989.369 266.387C953.444 240.126 944.893 188.077 950.638 143.95C955.809 104.233 987.707 76.4047 1017.58 49.7241C1045.11 25.131 1074.89 0.215187 1111.81 0.00163886Z" fill="#1AACFF"/>
</svg>
