<svg width="24" height="27" viewBox="0 0 24 27" fill="none" xmlns="http://www.w3.org/2000/svg">
<g filter="url(#filter0_d_1_14)">
<path fill-rule="evenodd" clip-rule="evenodd" d="M16.243 5.75699C15.4419 4.95642 14.4307 4.39891 13.3261 4.14891C12.2215 3.89891 11.0687 3.96664 10.001 4.34426C8.9333 4.72188 7.99427 5.39398 7.29248 6.28285C6.59068 7.17171 6.15478 8.24105 6.03518 9.36724C5.91557 10.4934 6.11714 11.6305 6.61658 12.6469C7.11603 13.6634 7.89295 14.5177 8.85752 15.1112C9.8221 15.7046 10.9349 16.013 12.0674 16.0005C13.1998 15.9881 14.3057 15.6555 15.257 15.041C15.3671 14.9655 15.4913 14.9128 15.6221 14.886C15.7529 14.8593 15.8877 14.859 16.0187 14.8852C16.1496 14.9114 16.274 14.9635 16.3844 15.0386C16.4949 15.1136 16.5892 15.21 16.6618 15.3221C16.7344 15.4341 16.7838 15.5596 16.8071 15.6911C16.8304 15.8225 16.8272 15.9574 16.7976 16.0876C16.768 16.2178 16.7126 16.3407 16.6347 16.4492C16.5568 16.5576 16.4579 16.6494 16.344 16.719C14.8507 17.6846 13.0783 18.1252 11.3067 17.971C9.53506 17.8169 7.86531 17.0769 6.5612 15.8679C5.25709 14.659 4.39296 13.05 4.10533 11.2951C3.81771 9.54021 4.12298 7.73952 4.97292 6.1775C5.82286 4.61548 7.16902 3.38117 8.79872 2.66957C10.4284 1.95797 12.2488 1.80965 13.9722 2.24804C15.6956 2.68643 17.2238 3.68654 18.3154 5.09036C19.407 6.49419 19.9997 8.22171 20 10C20.0002 10.5572 19.8452 11.1035 19.5523 11.5776C19.2595 12.0516 18.8404 12.4348 18.3421 12.6841C17.8437 12.9333 17.2858 13.0389 16.7308 12.9889C16.1759 12.9389 15.6458 12.7353 15.2 12.401C14.6301 13.1608 13.8085 13.6931 12.8821 13.9025C11.9558 14.112 10.9851 13.985 10.1438 13.5442C9.30249 13.1035 8.64546 12.3778 8.29026 11.4969C7.93506 10.6161 7.90488 9.63762 8.20511 8.73656C8.50533 7.8355 9.11638 7.07067 9.92892 6.57891C10.7415 6.08716 11.7025 5.90057 12.64 6.05253C13.5775 6.20448 14.4304 6.68508 15.046 7.40831C15.6616 8.13155 15.9998 9.05024 16 10C16 10.2652 16.1054 10.5196 16.2929 10.7071C16.4804 10.8946 16.7348 11 17 11C17.2652 11 17.5196 10.8946 17.7071 10.7071C17.8946 10.5196 18 10.2652 18 10C18 8.463 17.414 6.93 16.243 5.75699ZM14 10C14 9.46956 13.7893 8.96086 13.4142 8.58578C13.0391 8.21071 12.5304 8 12 8C11.4696 8 10.9609 8.21071 10.5858 8.58578C10.2107 8.96086 10 9.46956 10 10C10 10.5304 10.2107 11.0391 10.5858 11.4142C10.9609 11.7893 11.4696 12 12 12C12.5304 12 13.0391 11.7893 13.4142 11.4142C13.7893 11.0391 14 10.5304 14 10Z" fill="black"/>
</g>
<defs>
<filter id="filter0_d_1_14" x="-2" y="0" width="28" height="28" filterUnits="userSpaceOnUse" color-interpolation-filters="sRGB">
<feFlood flood-opacity="0" result="BackgroundImageFix"/>
<feColorMatrix in="SourceAlpha" type="matrix" values="0 0 0 0 0 0 0 0 0 0 0 0 0 0 0 0 0 0 127 0" result="hardAlpha"/>
<feOffset dy="4"/>
<feGaussianBlur stdDeviation="2"/>
<feComposite in2="hardAlpha" operator="out"/>
<feColorMatrix type="matrix" values="0 0 0 0 0 0 0 0 0 0 0 0 0 0 0 0 0 0 0.25 0"/>
<feBlend mode="normal" in2="BackgroundImageFix" result="effect1_dropShadow_1_14"/>
<feBlend mode="normal" in="SourceGraphic" in2="effect1_dropShadow_1_14" result="shape"/>
</filter>
</defs>
</svg>
