<svg width="25" height="25" viewBox="0 0 25 25" fill="none" xmlns="http://www.w3.org/2000/svg">
<path d="M21.5726 3.80676C21.5726 3.80676 23.5961 3.0177 23.4275 4.934C23.3713 5.72307 22.8654 8.48479 22.4719 11.472L21.1229 20.3208C21.1229 20.3208 21.0105 21.6171 19.9986 21.8426C18.9868 22.068 17.4692 21.0535 17.1881 20.828C16.9632 20.659 12.9723 18.1227 11.567 16.8827C11.1735 16.5445 10.7238 15.8682 11.6232 15.0791L17.5254 9.44297C18.1999 8.76661 18.8744 7.18849 16.0639 9.10479L8.19432 14.4592C8.19432 14.4592 7.29495 15.0228 5.60865 14.5155L1.95491 13.3883C1.95491 13.3883 0.605839 12.5429 2.9105 11.6974C8.53162 9.04838 15.4456 6.34302 21.5726 3.80676Z" fill="white"/>
</svg>
